<?xml version="1.0" encoding="UTF-8"?>
<svg enable-background="new 0 0 500 500" viewBox="0 0 500 500" xmlns="http://www.w3.org/2000/svg">
 <defs>
  <linearGradient id="i" x2="0" y1="287.33" y2="20.667" gradientUnits="userSpaceOnUse">
   <stop stop-color="#f5f9e6" offset="0"/>
   <stop stop-color="#a0dae3" offset="1"/>
  </linearGradient>
  <linearGradient id="h" x1="67.666" x2="179" gradientUnits="userSpaceOnUse">
   <stop stop-color="#225c2e" offset="0"/>
   <stop stop-color="#3d8c41" offset="1"/>
  </linearGradient>
  <linearGradient id="g" x1="194.89" x2="303.67" gradientUnits="userSpaceOnUse">
   <stop stop-color="#267d47" offset="0"/>
   <stop stop-color="#22a84a" offset="1"/>
  </linearGradient>
  <linearGradient id="f" x1="226.33" x2="238.33" gradientUnits="userSpaceOnUse">
   <stop stop-color="#2d190d" offset="0"/>
   <stop stop-color="#72411a" offset="1"/>
  </linearGradient>
  <linearGradient id="e" x1="121" x2="250" gradientUnits="userSpaceOnUse">
   <stop stop-color="#468c40" offset="0"/>
   <stop stop-color="#5fbb46" offset="1"/>
  </linearGradient>
  <linearGradient id="d" x1="169.25" x2="185.5" gradientUnits="userSpaceOnUse">
   <stop stop-color="#432810" offset="0"/>
   <stop stop-color="#663b1a" offset=".45"/>
   <stop stop-color="#80461e" offset=".8047"/>
   <stop stop-color="#8a4a20" offset="1"/>
  </linearGradient>
  <linearGradient id="c" x1="333.46" x2="404.33" gradientUnits="userSpaceOnUse">
   <stop stop-color="#249947" offset="0"/>
   <stop stop-color="#249947" offset="1"/>
  </linearGradient>
  <linearGradient id="b" x1="368.89" x2="416.04" gradientUnits="userSpaceOnUse">
   <stop stop-color="#5fbb46" offset="0"/>
   <stop stop-color="#5fbb46" offset="1"/>
  </linearGradient>
  <linearGradient id="a" x1="398" x2="452.71" gradientUnits="userSpaceOnUse">
   <stop stop-color="#225c2e" offset="0"/>
   <stop stop-color="#225c2e" offset="1"/>
  </linearGradient>
  <linearGradient id="p" x1="404.33" x2="483.38" gradientUnits="userSpaceOnUse">
   <stop stop-color="#249947" offset="0"/>
   <stop stop-color="#249947" offset="1"/>
  </linearGradient>
  <linearGradient id="o" x1="427.17" x2="474.9" gradientUnits="userSpaceOnUse">
   <stop stop-color="#5fbb46" offset="0"/>
   <stop stop-color="#5fbb46" offset="1"/>
  </linearGradient>
  <linearGradient id="n" x1="134.9" x2="361.95" y1="435.67" y2="208.62" gradientUnits="userSpaceOnUse">
   <stop stop-color="#66bc46" offset="0"/>
   <stop stop-color="#acd037" offset="1"/>
  </linearGradient>
  <linearGradient id="m" x1="226.3" x2="265.63" gradientUnits="userSpaceOnUse">
   <stop stop-color="#666" offset="0"/>
   <stop stop-color="#ccc" offset="1"/>
  </linearGradient>
  <linearGradient id="l" x1="231.75" x2="260.75" gradientUnits="userSpaceOnUse">
   <stop stop-color="#666" offset="0"/>
   <stop stop-color="#2e2e2e" offset="1"/>
  </linearGradient>
  <linearGradient id="k" x1="245.15" x2="287" gradientUnits="userSpaceOnUse">
   <stop stop-color="#f04f36" offset="0"/>
   <stop stop-color="#f04f36" offset="1"/>
  </linearGradient>
  <linearGradient id="j" x1="393" x2="339" gradientUnits="userSpaceOnUse">
   <stop stop-color="#e45025" offset="0"/>
   <stop stop-color="#e57925" offset=".2184"/>
   <stop stop-color="#e7832b" offset=".2745"/>
   <stop stop-color="#efb052" offset=".5272"/>
   <stop stop-color="#f5d273" offset=".741"/>
   <stop stop-color="#f9e888" offset=".9052"/>
   <stop stop-color="#fbf391" offset="1"/>
  </linearGradient>
 </defs>
 <path d="m221.9 21s-252.59-9-206.75 66.5c16.847 8.5 53.847 12.218 30.847 34.859-24 8.641-37 31.641-19.539 49.616 0 0 41.206 13.525 37.872 38.275s-64.333 29.084-28.333 63.417 494.76 6.563 447.38-113.05-178.58-131.62-261.48-139.62z" fill="url(#i)"/>
 <path d="m73 131s13.333 40-8.667 66c8-1.333 12.667-2.667 18.667-8-1.333 17.333-3.333 35.333-15.333 48.667 8 2 20-4 24-10-3.333 14-6 33.334-18.667 46 35.333-18.667 108-54.667 108-54.667v-21.333l-36-14.333s-21.333 5-36.667-14.333c8.667-2.667 13.333-3.538 18.667-13.769-10 2.435-30.667 10.435-54-24.232z" fill="#020202"/>
 <path d="m78.333 143s6 38-10.667 49.333c10-2 13.333-5.333 18-12 2 8 0 38.667-14.667 56.667 14.667-5.333 17.333-9.333 22.667-15.333 2 8.667-2 27.63-7.333 37.482 20.667-12.816 92.667-36.149 92.667-36.149v-26.667l-32-9.333s-21.333 8.667-41.333-18c4.667-2.667 8.667-1.436 12-8.385-8 1.052-15.334 4.385-39.334-17.615z" fill="url(#h)"/>
 <path d="m248.67 49.333s-13 37.667-37 55.667c8 2.667 10.833 2 20.083 0-4.083 8.667-19.417 30-37.417 33.333s5.334 40.667 5.334 40.667l26.63 8s-1.63 12.667-2.296 25c5 1 17.308 0 17.308 0s-2.307-9-1.974-23.333c0-6.333 0.333-8.333 0.333-8.333s7.667 11 18.667 14.333 39.334 5 55.334 0c-5-2.333-27-6.333-42-44 9.333 2 21 3 28-0.667-6.667-3.333-34.333-11.334-41-40.667 10 0.667 20-0.667 22-6.667-5.669-1.999-21.087-2.999-32.002-53.333z"/>
 <path d="m247 61.333s-4.667 24.667-29.333 42c6 0.667 11.333 0 19-3.333-2 7.333-9.333 30.667-41 43-3 7.667 3.667 40.333 3.667 40.333h40.333s15.151 9.333 27.409 10.333 26.258 2 36.591-1.333c-5-2-28.182-14-36.591-44.667 5.924 1.334 17.281 3.667 25.77 2.334-11.846-4-34.512-12-38.179-46 7.333 1.667 12.667 4.333 20.667 0.667-5.334-3-25.334-15.334-28.334-43.334z" fill="url(#g)"/>
 <path d="m228.67 185.33s-1.667 14.333-2.333 20.333c3 0.333 5.333-0.667 10 0 0-3.667-0.333-16 2-20.333-4.334-0.666-9.667 0-9.667 0z" fill="url(#f)"/>
 <path d="m165.67 57.667s-14.667 48.667-34.667 64.667c9.333 0 18-4.667 24-10-2.667 10-14 49.333-37.333 66 13.333-0.667 24.667-3.334 34.667-12.667-6 16-22.667 40.667-41.333 47.333 12.667 2.667 44.667-1 60.667-10.333 2.833 5.833 4 11.078 4 11.078h12s-3.333-2.744 0-17.411c9.333 1.333 46 5.333 62.333-18 3-3.333-3.75-3.333-3.75-3.333s-25.251 1.332-43.251-16.001c19.333-0.667 25.333-1.333 33.333-6.667-8.667 0-37.334-7.333-50.667-44 10-0.667 14 0 23.333-5.333-11.332-4-35.999-21.333-43.332-45.333z"/>
 <path d="m167 68.333s-13.333 38.666-28 49.333c10-3.333 13.333-6.667 18.667-10.667-0.667 6.667-4 38.667-28.667 64.667 12-2.667 24-12 31.333-16.667-2.667 10.667-14 41.333-39.333 55.333 10.667 0 28 0.667 50-11.333-2.667-6-4.667-12-4.667-12s9.333 2 21.333-3.333v10s27.333 7.333 62.333-14.667c-5-3.333-24.333 4.667-52.333-21.333 7.333-0.667 21.926-2 28.63-3.333-13.296-4-36.63-12.667-46.63-54 4 1.333 12.667 4 19.333 2.667-9.332-4-19.999-9.333-31.999-34.667z" fill="url(#e)"/>
 <path d="m169.25,188.5c0,0 11.75.5 16.25-1.5-.667,6-2.75,16.5-.75,21.75-3.25.75-7.75,1.5-7.75,1.5s-4.208-9.176-7.75-21.75z" fill="url(#d)"/>
 <path d="m331.666,228c0,0-12.999-28 12.667-29.333-.334-5.667-.334-8 4.666-11.667s12.666-2.667 16,2.333c3.667-1.667 7.667-3.334 12.667-1.667s6.666,3.773 8.333,7.72c2.334-.387 2.668-1.132 5.334-.759 1-3.627 4.332-8.7 10.666-9.831s10.333.537 13,3.537c4-2 9.666-3.593 15-3.296s11.333,3.736 11,10.35c4.334,1.28 9.333.946 12,5.28s4.334,14.667-4.666,19.667c2.333,1.333 3.666,2.667 3.666,4.667 3-1.667 9.334-6 15.334-.667s7.332,7.333 6.666,11.667c3.667,1.333 9.334,3 11.334,9s-.668,15-5.334,16c4.334,2 6.334,2.999 7.667,8.333s-4.333,12.668-8.333,13.334c.333,2.666.667,8.294-2,12.313s-10,12.896-25,13.958c-7.334-8.606-66-55.273-120.667-80.939z" fill="#020202"/>
 <path d="m337.67 228.67s-6.001-10.652-3.667-18.326 10-12.007 15.667-8.34c-0.667-5.333-0.667-10.667 4-11.667s6.333 2.255 7.333 4.294c-1 2.706-0.667 5.372 0 7.039 1.334-4 6.667-12.039 11.667-11.52s8.333 1.186 10 7.52c-1.667 2.667-2.333 5.807-2 8.07 2.667-3.737 7.667-8.403 13-7.737s8.999 3.474 10.333 7.737-1.667 9.597-4 11.263c-4.666 1-11.334 1.333-13 5.667-2.333-3-6.332-4-11.666-1.667s-9 5.667-10 13.667c-7-1.667-27.667-6-27.667-6z" fill="url(#c)"/>
 <path d="m368.9 238s1.104-13.333 7.771-14.667 9 3.667 9 7.333c2.667-4.667 6.001-12.333 12.667-10.333 4 1.667 5.666 1.333 7.333 5-2 1.667-2.001 0.674-2.667 3.67 3-0.337 6-2.33 9 0s3.667 5.996 1.667 8.996c2.333 1.333 4.667 6.667-2 10.333 1.667 1.667 3 1.667 3 1.667s3.666 6.667-5.667 6-40.104-17.999-40.104-17.999z" fill="url(#b)"/>
 <path d="m398 195.39s1.001-5.474 8.334-5.264 8.418 0.65 9.709 5.264c2.957-3.053 4.291-6.72 9.291-6.72s7.999 1.72 9.666 3.36 3 3.36 3 3.36-2.999 3.28-1.666 6.947c2.666-2.667 4.332-4.667 9.666-3.333s6.334 5.333 6.667 8.333-1 10.681-9 12.674c-2.667-1.674-4.334-2.326-8.667 0-1-4.007-1.667-12.534-8-14.271s-16.666 2.263-16.666 2.263 1.666-8.227-12.334-12.613z" fill="url(#a)"/>
 <path d="m410,210.34c0,0 .323,5.674-5.672,9.667 2.339,1.326 1.942,1.398 2.838,4.659 4.501.333 8.251,1.667 8.876,6.333s0,7.027 0,7.027 2.292,1.972 2.625,3.639-1.249,5-2.625,6.667c1.958,1.667 1.459,8.833-2.375,9.5 4.833,2.667 13.166,8.5 13.166,8.5s6-9.333 12-9.333 12.667.334 16.167,5.167c4.5-.667 8.833-1 11.5.833s5.501,3.834 5.667,6.667-.333,4.999-1.5,6.166c2.5.5 4.833,1.001 5.333,2.834 4-.334 8-3.501 7-9.334s-4.333-6.832-7.5-7.166c2.833-2.167 9.144-4.333 7.655-12.833s-11.988-8.333-14.488-7.5-4,1-4,1 .833-2 2.833-3.333c1.833-2.833 3-9.333-2-12.5s-13.667-2.5-16,4.667c-2.5.5-3,0-3.5.833 .667-3.167.333-3 1.833-5-1.5-2-7.667-10.167-17-3 .5-5.667-.167-13.167-4-15.333s-12.666-2.653-16.833,1.173z" fill="url(#p)"/>
 <path d="m427.167,272.833c0,0 4.166-11.334 8.333-12.5s10.833-4.5 17,5c-1,3.167-.833,5.5 0,7.5 .833-3.833 3.167-9.166 8-8.333s6.223.57 9.167,6.167c.333,3.333-1.334,5.666-1.334,5.666s-4.5,1.501-4.833,5.334c3-1.5 4.499-3.833 7.333-3s2.5,2 2.5,2-1.666-.667-2.666,1.833c1.333-.167 3.499.167 3.666,2s2,8.834-2,12.167-9,5.834-13.5,5.5c-4.666-5-31.666-29.334-31.666-29.334z" fill="url(#o)"/>
 <path d="m15.153 334.46s50.77-131.54 221.54-127.69 237.69 106.92 245.38 117.69c-6.923 15.384-13.847 33.076-112.31 43.076-23.077 2.308-66.155 4.616-49.231 23.847 6.924 6.153 10.001 13.076-6.153 19.23s-68.462 16.923-105.38 16.923-96.923-1.539-121.54-30c-7.692-10.769-9.231-13.845-7.692-20.769s-0.769-10.77-13.846-19.231-35.616-20.768-50.77-23.076z"/>
 <path d="m26.461 327.23s61-118.92 209.46-118.15 226.92 96.153 235.39 116.15c-5.385 10-25.384 30-76.153 35.385s-81.539 9.231-86.154 21.539c-0.77 7.691 6.154 12.308 6.154 12.308s13.847 6.154-5.385 14.615-69.231 16.923-120.77 12.308-83.077-10.769-100-32.308c-9.231-10 1.83-12.106-1.539-20.77-5.384-13.845-37.923-30.308-61-41.077z" fill="url(#n)"/>
 <path d="m222 305.67s-2.333-9.667 15.667-12.334c15.395-2.281 32.352-1.289 32.333 4.667 0.334 5.333-3.999 8.333-8.666 10s-37.334 7.001-39.334-2.333z"/>
 <path d="m228.25 306.75s9.75-10 35-5c1.75-1.25 6.25-5.5-5-6.5s-23.25 1-26.5 2.5-8.25 7.25-3.5 9z" fill="url(#m)"/>
 <path d="m231.75 308s13.25-9.25 29-3.75c-3 1.75-13.5 6.75-29 3.75z" fill="url(#l)"/>
 <path d="m241.31 155.23s7.692 79.23 0 154.62c5.385 0 3.538 1.538 8.692 0-1-29.23-2.308-57.691-4.346-123.85 12.577-4.615 20.268-8.462 47.192-15.385-13.076-4.615-26.154-9.999-51.538-15.384z"/>
 <path d="m245.15 160.62s0.726 11.359 1 22.718c4.846-2 30.846-11.666 40.846-13.333-16.109-4.688-31-7.667-41.846-9.385z" fill="url(#k)"/>
 <path d="m396 115.5a30 30 0 1 0 -60 0 30 30 0 1 0 60 0"/>
 <path d="m393 114.5a27 27 0 1 0 -54 0 27 27 0 1 0 54 0" fill="url(#j)"/>
 <g fill="#0b0b0b">
  <path d="m353.668,101.333c0,0-2.918.167-3.418,3.417 0,4 3.086,3.625 3.418,3.625s2.957-.375 3.082-3c-.125-1.375-1-1.5-1-1.5s.5.625 0,1.625-3.125,2.25-3.625.25-.789-2.583 1.543-4.417z"/>
  <path d="m360.668,110.975c0,0-2.918.167-3.418,3.417 0,4 3.086,3.625 3.418,3.625s2.957-.375 3.082-3c-.125-1.375-1-1.5-1-1.5s.5.625 0,1.625-3.125,2.25-3.625.25-.789-2.584 1.543-4.417z"/>
  <path d="m350.418,111.975c0,0-2.918.167-3.418,3.417 0,4 3.086,3.625 3.418,3.625s2.957-.375 3.082-3c-.125-1.375-1-1.5-1-1.5s.5.625 0,1.625-3.125,2.25-3.625.25-.789-2.584 1.543-4.417z"/>
  <path d="m357.418,120.225c0,0-2.918.167-3.418,3.417 0,4 3.086,3.625 3.418,3.625s2.957-.375 3.082-3c-.125-1.375-1-1.5-1-1.5s.5.625 0,1.625-3.125,2.25-3.625.25-.789-2.584 1.543-4.417z"/>
  <path d="m344.58,104.859c0,0-2.29.131-2.683,2.682 0,3.14 2.423,2.846 2.683,2.846s2.322-.294 2.42-2.355c-.098-1.08-.785-1.178-.785-1.178s.393.491 0,1.276-2.453,1.766-2.846.196-.619-2.028 1.211-3.467z"/>
  <path d="m348.455,122.359c0,0-2.29.131-2.683,2.682 0,3.14 2.423,2.846 2.683,2.846s2.322-.294 2.42-2.355c-.098-1.08-.785-1.178-.785-1.178s.393.491 0,1.276-2.453,1.766-2.846.196-.619-2.028 1.211-3.467z"/>
  <path d="m358.83,132.359c0,0-2.29.131-2.683,2.682 0,3.14 2.423,2.846 2.683,2.846s2.322-.294 2.42-2.355c-.098-1.08-.785-1.178-.785-1.178s.393.491 0,1.276-2.453,1.766-2.846.196-.619-2.028 1.211-3.467z"/>
  <path d="m366.131,134.546c0,0-2.29.131-2.683,2.682 0,3.14 2.423,2.846 2.683,2.846s2.322-.294 2.42-2.355c-.098-1.08-.785-1.178-.785-1.178s.393.491 0,1.276-2.453,1.766-2.846.196-.619-2.028 1.211-3.467z"/>
 </g>
</svg>
